<?xml version="1.0" standalone="no"?><!DOCTYPE svg PUBLIC "-//W3C//DTD SVG 1.1//EN" "http://www.w3.org/Graphics/SVG/1.1/DTD/svg11.dtd"><svg class="icon" width="200px" height="200.00px" viewBox="0 0 1024 1024" version="1.1" xmlns="http://www.w3.org/2000/svg"><path d="M842.24 245.76h-542.72l-32.256-152.576c-2.56-13.312-14.336-22.528-27.648-22.528H122.88c-10.24 0-19.456 5.632-24.576 14.336-5.12 8.704-5.12 19.456 0 28.672 5.12 8.704 14.336 14.336 24.576 14.336h93.696l100.352 475.136c4.608 22.528 18.432 42.496 37.376 55.296 18.944 12.8 43.008 16.896 65.536 12.288l430.08-90.112c44.544-9.216 79.872-52.736 79.872-98.304V332.288c0-23.04-9.216-45.056-25.6-61.44-16.896-16.384-38.912-25.088-61.952-25.088z m29.696 236.032c0 18.944-16.384 38.912-34.816 42.496l-430.08 90.112c-2.048 0.512-4.096 0.512-6.144 0.512-5.632 0-11.264-1.536-16.384-4.608-4.096-2.56-7.68-6.144-9.728-10.752H373.76l-60.928-296.96h528.896c7.68 0 15.36 3.072 20.992 8.704 5.632 5.632 8.704 13.312 8.704 20.992v149.504z" fill="#2E77ED" /><path d="M501.76 761.856c-33.792 0-60.928 27.136-60.928 60.928s27.136 60.928 60.928 60.928c33.792 0 60.928-27.136 60.928-60.928s-27.648-60.928-60.928-60.928zM820.224 761.856c-33.792 0-60.928 27.136-60.928 60.928s27.136 60.928 60.928 60.928c33.792 0 60.928-27.136 60.928-60.928s-27.136-60.928-60.928-60.928z" fill="#FFBB12" /></svg>