<?xml version="1.0" standalone="no"?><!DOCTYPE svg PUBLIC "-//W3C//DTD SVG 1.1//EN" "http://www.w3.org/Graphics/SVG/1.1/DTD/svg11.dtd"><svg class="icon" width="200px" height="200.00px" viewBox="0 0 1024 1024" version="1.1" xmlns="http://www.w3.org/2000/svg"><path d="M917.049805 1024a27.493623 27.493623 0 0 1-27.493623-27.493623V412.40435a72.99557 72.99557 0 0 0-25.294133-54.987247L526.090482 64.472547a40.14069 40.14069 0 0 0-51.962948 0.824808L157.950866 357.417103A73.407974 73.407974 0 0 0 134.443818 411.304605v536.125654a23.919452 23.919452 0 0 0 23.507048 21.307558H742.052893a27.493623 27.493623 0 0 1 0 54.987247H158.36327a78.906699 78.906699 0 0 1-77.944422-68.734058 59.661163 59.661163 0 0 1-0.962277-10.035173V411.304605a127.845348 127.845348 0 0 1 41.240435-94.028192L436.873674 24.881729a94.028192 94.028192 0 0 1 125.095986-2.062022L900.278695 316.176668a128.395221 128.395221 0 0 1 44.264734 96.227682v584.102027a27.493623 27.493623 0 0 1-27.493624 27.493623z" fill="#886FF7" /><path d="M399.894751 556.88334m0-44.814606l0-0.137468q0-44.814606 44.814606-44.814606l134.718754 0q44.814606 0 44.814606 44.814606l0 0.137468q0 44.814606-44.814606 44.814606l-134.718754 0q-44.814606 0-44.814606-44.814606Z" fill="#CCC029" /></svg>