<?xml version="1.0" standalone="no"?><!DOCTYPE svg PUBLIC "-//W3C//DTD SVG 1.1//EN" "http://www.w3.org/Graphics/SVG/1.1/DTD/svg11.dtd"><svg class="icon" width="200px" height="200.00px" viewBox="0 0 1024 1024" version="1.1" xmlns="http://www.w3.org/2000/svg"><path fill="#333333" d="M460.8 819.2c-28.16 0-51.2 23.04-51.2 51.2s23.04 51.2 51.2 51.2 51.2-23.04 51.2-51.2-23.04-51.2-51.2-51.2z m256 0c-28.16 0-51.2 23.04-51.2 51.2s23.04 51.2 51.2 51.2 51.2-23.04 51.2-51.2-23.04-51.2-51.2-51.2zM358.4 358.4l-64-204.8H128c-15.36 0-25.6 10.24-25.6 25.6s10.24 25.6 25.6 25.6h128l51.2 153.6 51.2 307.2c0 56.32 46.08 102.4 102.4 102.4h281.6c56.32 0 102.4-46.08 102.4-102.4l76.8-307.2H358.4z m435.2 307.2c0 28.16-23.04 51.2-51.2 51.2H460.8c-28.16 0-51.2-23.04-51.2-51.2l-43.52-256h491.52L793.6 665.6z" /></svg>