<?xml version="1.0" standalone="no"?><!DOCTYPE svg PUBLIC "-//W3C//DTD SVG 1.1//EN" "http://www.w3.org/Graphics/SVG/1.1/DTD/svg11.dtd"><svg class="icon" width="200px" height="200.00px" viewBox="0 0 1024 1024" version="1.1" xmlns="http://www.w3.org/2000/svg"><path d="M619.52 578.56V808.96h194.56V660.48h-133.12v-81.92h215.04V849.92l-40.96 40.96h-276.48l-40.96-40.96V578.56z" fill="#63F7DE" /><path d="M619.52 512V215.04h194.56v172.032h-133.12v81.92h174.08l40.96-40.96V174.08l-40.96-40.96h-276.48l-40.96 40.96v337.92z" fill="#437DFF" /><path d="M445.44 890.88h-276.48l-40.96-40.96V619.52l40.96-40.96h174.08v81.92h-133.12V808.96h194.56V215.04h-194.56v172.032h133.12v81.92h-174.08l-40.96-40.96V174.08l40.96-40.96h276.48l40.96 40.96v675.84z" fill="#437DFF" /></svg>