<?xml version="1.0" standalone="no"?><!DOCTYPE svg PUBLIC "-//W3C//DTD SVG 1.1//EN" "http://www.w3.org/Graphics/SVG/1.1/DTD/svg11.dtd"><svg t="1597758375278" class="icon" viewBox="0 0 1024 1024" version="1.1" xmlns="http://www.w3.org/2000/svg" p-id="2082" xmlns:xlink="http://www.w3.org/1999/xlink" width="200" height="200"><defs><style type="text/css"></style></defs><path d="M512 960C264.576 960 64 759.424 64 512S264.576 64 512 64s448 200.576 448 448-200.576 448-448 448z m0-64c212.077 0 384-171.923 384-384S724.077 128 512 128 128 299.923 128 512s171.923 384 384 384z" p-id="2083"></path><path d="M556.343 363.098v404.333c0 22.092-17.908 40-40 40-22.091 0-40-17.908-40-40V363.087a4 4 0 0 0-6.728-2.925L326.686 493.459a8 8 0 0 1-5.655 2.342H231a4 4 0 0 1-2.828-6.828l260.256-260.257c15.621-15.621 40.948-15.621 56.569 0l250.257 260.257a4 4 0 0 1-2.828 6.828h-90.764a8 8 0 0 1-5.663-2.35L563.175 360.274a4 4 0 0 0-6.832 2.824z" p-id="2084"></path></svg>